<?xml version="1.0" encoding="utf-8"?>
<!-- Generator: Adobe Illustrator 16.0.0, SVG Export Plug-In . SVG Version: 6.00 Build 0)  -->
<!DOCTYPE svg PUBLIC "-//W3C//DTD SVG 1.1//EN" "http://www.w3.org/Graphics/SVG/1.1/DTD/svg11.dtd">
<svg version="1.1"
	 id="svg2" xmlns:dc="http://purl.org/dc/elements/1.1/" xmlns:cc="http://creativecommons.org/ns#" xmlns:rdf="http://www.w3.org/1999/02/22-rdf-syntax-ns#" xmlns:svg="http://www.w3.org/2000/svg" xmlns:sodipodi="http://sodipodi.sourceforge.net/DTD/sodipodi-0.dtd" xmlns:inkscape="http://www.inkscape.org/namespaces/inkscape" sodipodi:version="0.32" inkscape:version="0.48.2 r9819" sodipodi:docname="BBC_Worldwide_Logo.svg" inkscape:output_extension="org.inkscape.output.svg.inkscape"
	 xmlns="http://www.w3.org/2000/svg" xmlns:xlink="http://www.w3.org/1999/xlink" x="0px" y="0px" width="1000px"
	 height="285.014px" viewBox="0 0 1000 285.014" enable-background="new 0 0 1000 285.014" xml:space="preserve">
<defs>
	
	
		<inkscape:perspective  sodipodi:type="inkscape:persp3d" inkscape:vp_x="0 : 526.18109 : 1" inkscape:vp_y="0 : 1000 : 0" inkscape:vp_z="744.09448 : 526.18109 : 1" id="perspective10" inkscape:persp3d-origin="372.04724 : 350.78739 : 1">
		</inkscape:perspective>
	
		<inkscape:perspective  sodipodi:type="inkscape:persp3d" inkscape:vp_x="0 : 27.806 : 1" inkscape:vp_y="0 : 1000 : 0" inkscape:vp_z="187.086 : 27.806 : 1" id="perspective2485" inkscape:persp3d-origin="93.542999 : 18.537333 : 1">
		</inkscape:perspective>
	
		<inkscape:perspective  sodipodi:type="inkscape:persp3d" inkscape:vp_x="0 : 526.18109 : 1" inkscape:vp_y="0 : 1000 : 0" inkscape:vp_z="744.09448 : 526.18109 : 1" id="perspective2546" inkscape:persp3d-origin="372.04724 : 350.78739 : 1">
		</inkscape:perspective>
	
		<inkscape:perspective  sodipodi:type="inkscape:persp3d" inkscape:vp_x="0 : 526.18109 : 1" inkscape:vp_y="0 : 1000 : 0" inkscape:vp_z="744.09448 : 526.18109 : 1" id="perspective2615" inkscape:persp3d-origin="372.04724 : 350.78739 : 1">
		</inkscape:perspective>
	
		<inkscape:perspective  sodipodi:type="inkscape:persp3d" inkscape:vp_x="0 : 526.18109 : 1" inkscape:vp_y="0 : 1000 : 0" inkscape:vp_z="744.09448 : 526.18109 : 1" id="perspective2461" inkscape:persp3d-origin="372.04724 : 350.78739 : 1">
		</inkscape:perspective>
	
		<inkscape:perspective  sodipodi:type="inkscape:persp3d" inkscape:vp_x="0 : 526.18109 : 1" inkscape:vp_y="0 : 1000 : 0" inkscape:vp_z="744.09448 : 526.18109 : 1" id="perspective2526" inkscape:persp3d-origin="372.04724 : 350.78739 : 1">
		</inkscape:perspective>
	
		<inkscape:perspective  sodipodi:type="inkscape:persp3d" inkscape:vp_x="0 : 526.18109 : 1" inkscape:vp_y="0 : 1000 : 0" inkscape:vp_z="744.09448 : 526.18109 : 1" id="perspective2576" inkscape:persp3d-origin="372.04724 : 350.78739 : 1">
		</inkscape:perspective>
	
		<inkscape:perspective  sodipodi:type="inkscape:persp3d" inkscape:vp_x="0 : 526.18109 : 1" inkscape:vp_y="0 : 1000 : 0" inkscape:vp_z="744.09448 : 526.18109 : 1" id="perspective2740" inkscape:persp3d-origin="372.04724 : 350.78739 : 1">
		</inkscape:perspective>
	
		<inkscape:perspective  sodipodi:type="inkscape:persp3d" inkscape:vp_x="0 : 526.18109 : 1" inkscape:vp_y="0 : 1000 : 0" inkscape:vp_z="744.09448 : 526.18109 : 1" id="perspective2950" inkscape:persp3d-origin="372.04724 : 350.78739 : 1">
		</inkscape:perspective>
	
		<inkscape:perspective  sodipodi:type="inkscape:persp3d" inkscape:vp_x="0 : 27.806 : 1" inkscape:vp_y="0 : 1000 : 0" inkscape:vp_z="187.086 : 27.806 : 1" id="perspective2863" inkscape:persp3d-origin="93.542999 : 18.537333 : 1">
		</inkscape:perspective>
</defs>
<sodipodi:namedview  pagecolor="#ffffff" bordercolor="#666666" borderopacity="1.0" gridtolerance="10000" guidetolerance="10" objecttolerance="10" inkscape:zoom="1.0034479" inkscape:cx="493.33303" inkscape:cy="-19.326427" showgrid="false" fit-margin-left="0.1" fit-margin-top="0.1" id="base" inkscape:pageopacity="0.0" inkscape:pageshadow="2" inkscape:document-units="px" inkscape:current-layer="layer1" inkscape:window-width="1920" inkscape:window-height="1028" inkscape:window-x="-8" inkscape:window-y="-8" fit-margin-bottom="0.1" fit-margin-right="0.1" inkscape:window-maximized="1">
	<inkscape:grid  type="xygrid" visible="true" enabled="true" empspacing="5" id="grid2500" snapvisiblegridlinesonly="true">
		</inkscape:grid>
</sodipodi:namedview>
<path d="M541.816,184.201c0,30.971-38.541,29.133-38.541,29.133h-38.54v-55.963h38.54
	C542.939,157.104,541.816,184.201,541.816,184.201 M464.736,72.022h29.368c30.496,1.611,29.345,24.316,29.345,24.316
	c0,28.216-33.721,28.676-33.721,28.676h-24.992V72.022z M534.688,136.019c0,0,26.381-11.241,26.146-41.057
	c0,0,4.012-48.864-60.729-54.824h-71.838v204.849h82.343c0,0,68.803,0.205,68.803-57.799
	C579.411,187.188,581.038,147.716,534.688,136.019 M348.773,0h302.454v285.013H348.773V0z M193.041,184.201
	c0,30.971-38.541,29.133-38.541,29.133h-38.543v-55.963H154.5C194.166,157.104,193.041,184.201,193.041,184.201 M115.957,72.022
	h29.374c30.497,1.611,29.343,24.316,29.343,24.316c0,28.216-33.719,28.676-33.719,28.676h-24.998V72.022z M185.915,136.019
	c0,0,26.384-11.241,26.147-41.057c0,0,4.009-48.864-60.732-54.824H79.489v204.849h82.349c0,0,68.801,0.205,68.801-57.799
	C230.639,187.188,232.26,147.716,185.915,136.019 M0,0h302.453v285.013H0V0z M697.547,285.012H1000V0H697.547V285.012z M0,0h302.453
	v285.013H0V0z M348.773,0h302.454v285.013H348.773V0z"/>
<rect x="60.19" y="40.467" fill="none" width="182.073" height="204.078"/>
<text transform="matrix(1 0 0 1 60.7437 241.7234)" fill="#FFFFFF" font-family="'GillSansBold'" font-size="290">C</text>
<rect x="408.964" y="40.467" fill="none" width="182.073" height="204.077"/>
<text transform="matrix(1 0 0 1 438.0498 241.7234)" fill="#FFFFFF" font-family="'GillSansBold'" font-size="290">S</text>
<rect x="757.736" y="40.467" fill="none" width="182.073" height="204.077"/>
<text transform="matrix(1 0 0 1 786.8223 241.7234)" fill="#FFFFFF" font-family="'GillSansBold'" font-size="290">S</text>
</svg>
